<?xml version="1.0" encoding="UTF-8" standalone="no"?>
<svg
   xmlns:dc="http://purl.org/dc/elements/1.1/"
   xmlns:cc="http://creativecommons.org/ns#"
   xmlns:rdf="http://www.w3.org/1999/02/22-rdf-syntax-ns#"
   xmlns:svg="http://www.w3.org/2000/svg"
   xmlns="http://www.w3.org/2000/svg"
   xmlns:sodipodi="http://sodipodi.sourceforge.net/DTD/sodipodi-0.dtd"
   xmlns:inkscape="http://www.inkscape.org/namespaces/inkscape"
   version="1.1"
   id="Capa_1"
   x="0px"
   y="0px"
   viewBox="0 0 30 32"
   xml:space="preserve"
   sodipodi:docname="isometric-view_32px.svg"
   width="30"
   height="32"
   inkscape:version="1.0.1 (3bc2e813f5, 2020-09-07)"><metadata
   id="metadata39"><rdf:RDF><cc:Work
       rdf:about=""><dc:format>image/svg+xml</dc:format><dc:type
         rdf:resource="http://purl.org/dc/dcmitype/StillImage" /></cc:Work></rdf:RDF></metadata><defs
   id="defs37" /><sodipodi:namedview
   pagecolor="#ffffff"
   bordercolor="#666666"
   borderopacity="1"
   objecttolerance="10"
   gridtolerance="10"
   guidetolerance="10"
   inkscape:pageopacity="0"
   inkscape:pageshadow="2"
   inkscape:window-width="1920"
   inkscape:window-height="1017"
   id="namedview35"
   showgrid="false"
   inkscape:zoom="6.6782307"
   inkscape:cx="-24.168598"
   inkscape:cy="40.838343"
   inkscape:window-x="-8"
   inkscape:window-y="0"
   inkscape:window-maximized="1"
   inkscape:current-layer="Capa_1" />
<path
   d="M 30,8.2966617 C 30,7.7607495 29.701206,7.2708818 29.228028,7.0316813 L 15.622487,0.14873364 c -0.391905,-0.19831152 -0.852983,-0.19831152 -1.244974,0 L 0.77179579,7.0316813 C 0.29888128,7.2708818 0,7.7327494 0,8.3136395 0,8.8944408 0,23.621227 0,23.621227 0,24.15465 0.29633872,24.642651 0.76592162,24.883096 L 14.371551,31.848266 C 14.569608,31.949778 14.784935,32 14.999825,32 c 0.338598,0 0.685085,-0.181511 0.684998,-0.180623 l 13.549255,-6.93637 C 29.703748,24.642562 30,24.154561 30,23.621138 30,23.621316 30,8.3103506 30,8.2966617 Z M 15,2.9936285 25.4825,8.2966617 15,13.599606 4.5174997,8.2966617 Z M 2.7887403,10.581911 13.60563,16.054011 V 28.28897 L 2.7887403,22.751447 Z M 27.211259,22.751447 16.39437,28.28897 V 16.054011 l 10.816977,-5.4721 v 12.169536 z"
   id="path2"
   style="fill:#5274b1;fill-opacity:1;stroke-width:0.0264839;stroke-miterlimit:4;stroke-dasharray:none" />
<g
   id="g4"
   transform="matrix(0.09149245,0,0,0.08888907,-0.81538072,2.2222269e-5)">
</g>
<g
   id="g6"
   transform="matrix(0.09149245,0,0,0.08888907,-0.81538072,2.2222269e-5)">
</g>
<g
   id="g8"
   transform="matrix(0.09149245,0,0,0.08888907,-0.81538072,2.2222269e-5)">
</g>
<g
   id="g10"
   transform="matrix(0.09149245,0,0,0.08888907,-0.81538072,2.2222269e-5)">
</g>
<g
   id="g12"
   transform="matrix(0.09149245,0,0,0.08888907,-0.81538072,2.2222269e-5)">
</g>
<g
   id="g14"
   transform="matrix(0.09149245,0,0,0.08888907,-0.81538072,2.2222269e-5)">
</g>
<g
   id="g16"
   transform="matrix(0.09149245,0,0,0.08888907,-0.81538072,2.2222269e-5)">
</g>
<g
   id="g18"
   transform="matrix(0.09149245,0,0,0.08888907,-0.81538072,2.2222269e-5)">
</g>
<g
   id="g20"
   transform="matrix(0.09149245,0,0,0.08888907,-0.81538072,2.2222269e-5)">
</g>
<g
   id="g22"
   transform="matrix(0.09149245,0,0,0.08888907,-0.81538072,2.2222269e-5)">
</g>
<g
   id="g24"
   transform="matrix(0.09149245,0,0,0.08888907,-0.81538072,2.2222269e-5)">
</g>
<g
   id="g26"
   transform="matrix(0.09149245,0,0,0.08888907,-0.81538072,2.2222269e-5)">
</g>
<g
   id="g28"
   transform="matrix(0.09149245,0,0,0.08888907,-0.81538072,2.2222269e-5)">
</g>
<g
   id="g30"
   transform="matrix(0.09149245,0,0,0.08888907,-0.81538072,2.2222269e-5)">
</g>
<g
   id="g32"
   transform="matrix(0.09149245,0,0,0.08888907,-0.81538072,2.2222269e-5)">
</g>
</svg>
