<?xml version="1.0" encoding="UTF-8" standalone="no"?>
<svg
   xmlns:dc="http://purl.org/dc/elements/1.1/"
   xmlns:cc="http://creativecommons.org/ns#"
   xmlns:rdf="http://www.w3.org/1999/02/22-rdf-syntax-ns#"
   xmlns:svg="http://www.w3.org/2000/svg"
   xmlns="http://www.w3.org/2000/svg"
   xmlns:sodipodi="http://sodipodi.sourceforge.net/DTD/sodipodi-0.dtd"
   xmlns:inkscape="http://www.inkscape.org/namespaces/inkscape"
   inkscape:version="1.0 (4035a4fb49, 2020-05-01)"
   height="32"
   width="32"
   sodipodi:docname="Open.svg"
   id="svg940"
   enable-background="new 0 0 48 48"
   viewBox="0 0 32 32"
   version="1">
  <metadata
     id="metadata946">
    <rdf:RDF>
      <cc:Work
         rdf:about="">
        <dc:format>image/svg+xml</dc:format>
        <dc:type
           rdf:resource="http://purl.org/dc/dcmitype/StillImage" />
        <dc:title></dc:title>
      </cc:Work>
    </rdf:RDF>
  </metadata>
  <defs
     id="defs944" />
  <sodipodi:namedview
     inkscape:current-layer="svg940"
     inkscape:window-maximized="1"
     inkscape:window-y="-8"
     inkscape:window-x="-8"
     inkscape:cy="28.863335"
     inkscape:cx="16.100493"
     inkscape:zoom="8.8541667"
     showgrid="false"
     id="namedview942"
     inkscape:window-height="1017"
     inkscape:window-width="1920"
     inkscape:pageshadow="2"
     inkscape:pageopacity="0"
     guidetolerance="10"
     gridtolerance="10"
     objecttolerance="10"
     borderopacity="1"
     bordercolor="#666666"
     pagecolor="#ffffff" />
  <g
     id="g1511">
    <path
       fill="#5274B1"
       d="M 25.794039,4 H 13.655667 L 10.621075,0 H 3.0345928 C 1.3655667,0 0,1.8 0,4 v 24 c 0,2.2 1.3655667,4 3.0345928,4 H 26.552687 c 1.289702,0 2.275944,-1.3 2.275944,-3 V 8 c 0,-2.2 -1.365566,-4 -3.034592,-4 z"
       id="path936"
       style="fill:#5274b1;fill-opacity:1;stroke-width:0.871004" />
    <path
       fill="#CEE8FA"
       d="M 28.980361,10 H 8.5727246 C 7.131293,10 5.8415911,11.4 5.6139966,13.3 L 3.0345928,32 H 27.08374 c 1.441432,0 2.731134,-1.4 2.958728,-3.3 l 1.896621,-14 C 32.318413,12.3 30.876981,10 28.980361,10 Z"
       id="path938"
       style="fill:#cee8fa;fill-opacity:1;stroke-width:0.871004" />
  </g>
</svg>
