<?xml version="1.0" encoding="UTF-8" standalone="no"?>
<svg
   xmlns:dc="http://purl.org/dc/elements/1.1/"
   xmlns:cc="http://creativecommons.org/ns#"
   xmlns:rdf="http://www.w3.org/1999/02/22-rdf-syntax-ns#"
   xmlns:svg="http://www.w3.org/2000/svg"
   xmlns="http://www.w3.org/2000/svg"
   xmlns:sodipodi="http://sodipodi.sourceforge.net/DTD/sodipodi-0.dtd"
   xmlns:inkscape="http://www.inkscape.org/namespaces/inkscape"
   inkscape:version="1.0 (4035a4fb49, 2020-05-01)"
   height="31.999998"
   width="31.999998"
   sodipodi:docname="Save.svg"
   id="svg10"
   xml:space="preserve"
   enable-background="new 0 0 1000 1000"
   viewBox="0 0 31.999998 31.999998"
   y="0px"
   x="0px"
   version="1.1"><defs
   id="defs14" /><sodipodi:namedview
   inkscape:current-layer="svg10"
   inkscape:window-maximized="1"
   inkscape:window-y="-8"
   inkscape:window-x="-8"
   inkscape:cy="33.312134"
   inkscape:cx="14.167886"
   inkscape:zoom="9.6166522"
   showgrid="false"
   id="namedview12"
   inkscape:window-height="1017"
   inkscape:window-width="1920"
   inkscape:pageshadow="2"
   inkscape:pageopacity="0"
   guidetolerance="10"
   gridtolerance="10"
   objecttolerance="10"
   borderopacity="1"
   bordercolor="#666666"
   pagecolor="#ffffff" />
<metadata
   id="metadata2"> Svg Vector Icons : http://www.onlinewebfonts.com/icon <rdf:RDF><cc:Work
     rdf:about=""><dc:format>image/svg+xml</dc:format><dc:type
       rdf:resource="http://purl.org/dc/dcmitype/StillImage" /><dc:title></dc:title></cc:Work></rdf:RDF></metadata>
<g
   transform="matrix(0.03265306,0,0,0.03265306,-0.32979591,-0.3265306)"
   style="fill:#5274b1;fill-opacity:1"
   id="g8"><path
     style="fill:#5274b1;fill-opacity:1"
     id="path4"
     d="m 888.6,990 c -259,0 -518.1,0 -777.1,0 -1.8,-0.6 -3.5,-1.5 -5.3,-1.8 -45,-8.1 -74.9,-33.8 -90.2,-76.7 -2.6,-7.4 -4,-15.3 -5.9,-22.9 0,-259 0,-518.1 0,-777.1 0.6,-1.8 1.5,-3.5 1.8,-5.4 9.2,-49.4 38.6,-80 86.8,-93 4.3,-1.2 8.6,-2.1 12.8,-3.1 222.7,0 445.3,0 668,0 27.8,6.1 49.6,22.7 69.5,41.7 32.9,31.5 65.2,63.7 96.8,96.6 19.9,20.6 37.8,43.1 44.3,72.3 0,222.7 0,445.3 0,668 -0.6,1.8 -1.5,3.5 -1.8,5.3 -9.2,49.4 -38.5,80 -86.8,93 -4.3,1.1 -8.7,2.1 -12.9,3.1 z M 500.1,952.5 c 111.3,0 222.6,0 333.9,0 28.3,0 43.2,-14.9 43.2,-42.9 0,-122.2 0,-244.3 0,-366.5 0,-28.1 -15,-43.3 -42.9,-43.3 -223,0 -445.9,0 -668.8,0 -27.4,0 -42.8,15.2 -42.8,42.5 0,122.5 0,244.9 0,367.4 0,4.4 0.1,9 1.1,13.3 4.6,19.4 19.1,29.5 42.2,29.5 111.5,0 222.8,0 334.1,0 z M 480.9,387.3 c 79.4,0 158.8,0 238.2,0 30.5,0 45.2,-14.6 45.2,-45 0,-83.2 0,-166.4 0,-249.7 0,-30.6 -14.4,-45 -45.1,-45 -158.8,0 -317.6,0 -476.4,0 C 212.7,47.5 198,62.1 198,92 c -0.1,83.5 -0.1,167.1 0,250.6 0,29.9 14.9,44.7 44.7,44.7 79.4,0 158.8,0 238.2,0 z" /><path
     style="fill:#5274b1;fill-opacity:1"
     id="path6"
     d="m 576.4,86.1 c 37.3,0 73.6,0 110.7,0 0,87.5 0,174.5 0,262.1 -36.8,0 -73.4,0 -110.7,0 0,-87.1 0,-174.2 0,-262.1 z" /></g>
</svg>
